<?xml version="1.0" standalone="no"?>
<!DOCTYPE svg PUBLIC "-//W3C//DTD SVG 20010904//EN"
 "http://www.w3.org/TR/2001/REC-SVG-20010904/DTD/svg10.dtd">
<svg version="1.0" xmlns="http://www.w3.org/2000/svg"
 width="512.000000pt" height="512.000000pt" viewBox="0 0 512.000000 512.000000"
 preserveAspectRatio="xMidYMid meet">

<g transform="translate(0.000000,512.000000) scale(0.100000,-0.100000)"
fill="#BFFFBF" stroke="none">
<path d="M760 5106 c-90 -24 -182 -104 -222 -194 -33 -72 -31 -198 4 -273 32
-69 90 -129 160 -166 47 -25 64 -28 148 -28 84 0 102 3 152 28 68 33 139 109
164 172 l17 45 303 0 303 0 3 -301 3 -301 28 -24 c37 -31 52 -30 161 10 51 19
132 45 181 57 100 25 135 50 135 98 0 43 -9 60 -42 77 -27 14 -37 14 -105 -1
-42 -9 -100 -25 -131 -36 -30 -10 -56 -19 -58 -19 -2 0 -4 114 -6 254 -3 283
-3 283 -78 334 -33 22 -37 22 -365 22 l-332 0 -12 38 c-53 159 -241 254 -411
208z m166 -175 c59 -27 87 -72 92 -146 3 -50 0 -65 -20 -94 -31 -46 -66 -70
-110 -77 -57 -10 -106 4 -147 42 -92 83 -70 224 43 275 52 23 90 23 142 0z"/>
<path d="M2517 5109 c-44 -26 -47 -57 -47 -459 0 -415 3 -440 55 -460 15 -6
54 -10 88 -10 34 -1 94 -5 132 -10 179 -25 184 -25 209 -1 33 31 40 65 21 102
-23 43 -31 45 -282 75 l-43 5 0 340 c0 361 -4 394 -48 418 -26 14 -62 14 -85
0z"/>
<path d="M4163 5102 c-104 -37 -184 -114 -214 -204 l-12 -38 -332 0 c-328 0
-332 0 -365 -22 -18 -13 -43 -36 -54 -51 -20 -27 -21 -42 -24 -358 -2 -216 1
-336 8 -348 5 -11 55 -42 110 -70 132 -65 242 -140 368 -251 85 -73 110 -90
136 -90 59 0 99 66 71 119 -36 71 -306 278 -457 352 l-68 33 0 258 0 258 304
0 303 0 17 -45 c25 -63 96 -139 164 -172 50 -25 68 -28 152 -28 84 0 101 3
148 28 70 37 128 97 160 166 22 47 27 70 26 141 0 72 -4 94 -27 141 -32 67
-109 142 -173 171 -66 29 -175 34 -241 10z m173 -171 c113 -51 135 -192 43
-275 -41 -38 -90 -52 -147 -42 -44 7 -79 31 -110 77 -20 29 -23 44 -20 94 5
74 33 119 92 146 52 23 90 23 142 0z"/>
<path d="M1485 3991 c-115 -71 -334 -305 -424 -453 l-23 -38 -182 0 -182 0
-27 59 c-54 118 -172 191 -307 191 -136 0 -242 -66 -302 -188 -30 -60 -33 -75
-32 -152 1 -103 22 -157 89 -229 91 -97 235 -131 365 -87 71 25 168 119 195
189 l18 47 214 0 c126 0 222 4 233 10 11 6 51 57 89 113 95 139 190 247 297
337 49 41 94 82 101 90 22 26 15 75 -13 104 -31 31 -67 33 -109 7z m-1055
-433 c92 -63 107 -177 34 -257 -139 -155 -379 37 -261 209 47 70 160 93 227
48z"/>
<path d="M2380 4000 c-325 -45 -607 -184 -838 -412 -205 -202 -342 -453 -404
-741 -32 -148 -32 -428 0 -574 126 -579 557 -1010 1135 -1135 147 -31 427 -31
574 0 578 125 1010 557 1135 1135 31 147 31 427 0 574 -124 576 -559 1012
-1130 1133 -111 24 -366 35 -472 20z m450 -189 c329 -75 610 -267 797 -546 85
-126 154 -293 189 -455 26 -119 26 -381 0 -500 -35 -162 -104 -329 -189 -455
-56 -83 -77 -108 -170 -203 -170 -172 -396 -294 -647 -348 -119 -26 -381 -26
-500 0 -512 110 -896 494 -1006 1006 -26 119 -26 381 0 500 56 259 167 462
355 651 210 211 463 335 761 373 79 10 327 -4 410 -23z"/>
<path d="M2421 3560 c-147 -54 -256 -184 -281 -335 -5 -33 -10 -99 -10 -146
l0 -86 -62 -17 c-52 -14 -72 -27 -113 -69 -31 -32 -55 -68 -63 -93 -9 -30 -12
-161 -12 -475 l0 -434 24 -50 c28 -60 66 -97 126 -124 43 -20 64 -21 530 -21
l485 0 50 24 c60 28 97 66 124 126 20 43 21 64 21 479 0 315 -3 445 -12 475
-8 25 -32 61 -63 93 -41 42 -61 55 -112 69 l-63 17 0 91 c-1 227 -82 378 -249
458 -58 28 -78 32 -166 35 -81 3 -110 0 -154 -17z m221 -162 c53 -16 132 -88
153 -140 12 -29 20 -80 23 -155 l5 -113 -263 0 -263 0 5 113 c3 75 11 126 23
155 20 49 99 124 147 139 46 15 123 15 170 1z m404 -611 l24 -28 0 -415 0
-415 -25 -24 -24 -25 -461 0 -461 0 -24 25 -25 24 0 413 c0 447 0 446 54 468
11 5 223 8 469 7 l449 -2 24 -28z"/>
<path d="M2503 2641 c-132 -34 -220 -171 -192 -300 15 -70 59 -134 114 -166
33 -20 48 -35 52 -57 7 -35 47 -68 83 -68 36 0 76 33 83 68 4 22 19 37 52 57
86 50 136 165 114 265 -29 137 -176 234 -306 201z m114 -193 c25 -23 31 -74
13 -108 -14 -27 -64 -41 -100 -28 -36 12 -50 35 -50 79 0 70 85 106 137 57z"/>
<path d="M4653 3729 c-73 -28 -147 -98 -180 -169 l-27 -59 -222 -3 c-198 -3
-224 -5 -242 -21 -40 -37 -37 -62 23 -186 102 -208 160 -421 172 -634 3 -62
10 -122 14 -135 18 -49 48 -52 461 -52 345 0 386 2 418 18 20 10 39 29 44 45
14 40 -3 79 -44 99 -31 16 -71 18 -377 18 l-342 0 -6 58 c-24 224 -75 416
-162 610 -4 9 25 12 130 12 l134 0 18 -47 c27 -70 124 -164 195 -189 70 -23
169 -24 238 0 70 24 153 100 189 174 24 50 28 69 28 147 0 80 -3 97 -30 148
-36 73 -109 139 -181 166 -72 28 -180 27 -251 0z m207 -168 c99 -52 117 -186
36 -267 -118 -118 -310 -13 -282 154 17 107 146 167 246 113z"/>
<path d="M886 3158 c-40 -36 -89 -232 -111 -445 l-7 -63 -341 0 c-306 0 -346
-2 -377 -18 -66 -33 -66 -111 0 -144 32 -16 73 -18 418 -18 413 0 443 3 461
52 4 13 11 73 14 133 7 120 27 243 58 346 26 89 25 124 -6 154 -31 32 -76 32
-109 3z"/>
<path d="M839 2290 c-36 -21 -42 -62 -20 -151 18 -79 69 -229 105 -311 l16
-38 -134 0 -133 0 -18 48 c-12 30 -41 69 -80 109 -53 53 -71 64 -134 83 -80
25 -139 23 -224 -6 -65 -22 -149 -101 -184 -172 -24 -50 -28 -69 -28 -147 0
-80 3 -97 30 -148 126 -251 491 -250 610 2 l29 60 222 3 c198 3 224 5 242 21
40 36 37 61 -22 180 -60 123 -104 243 -131 355 -23 94 -45 122 -93 122 -20 0
-44 -5 -53 -10z m-448 -421 c45 -15 96 -65 110 -107 15 -45 6 -118 -18 -151
-11 -14 -35 -37 -54 -49 -48 -34 -141 -28 -192 11 -100 76 -79 235 37 288 48
22 70 23 117 8z"/>
<path d="M4172 2276 c-10 -14 -27 -58 -37 -98 -27 -112 -71 -232 -131 -355
-59 -119 -62 -144 -22 -180 18 -16 44 -18 242 -21 l223 -3 23 -52 c34 -74 112
-149 185 -176 49 -19 74 -22 140 -19 135 8 230 69 287 186 30 60 33 75 32 152
-1 99 -21 154 -81 221 -99 110 -229 141 -378 92 -65 -21 -164 -118 -190 -185
l-18 -48 -133 0 -134 0 16 38 c36 82 87 232 105 311 29 118 9 161 -75 161 -25
0 -40 -7 -54 -24z m674 -415 c70 -32 114 -112 100 -184 -35 -186 -312 -181
-333 6 -7 58 10 106 50 144 56 53 116 64 183 34z"/>
<path d="M1225 1529 c-32 -18 -45 -40 -45 -75 0 -85 284 -337 528 -468 l77
-41 3 -258 2 -257 -303 0 -304 0 -17 45 c-25 63 -96 139 -164 172 -50 25 -68
28 -152 28 -84 0 -101 -3 -148 -28 -70 -37 -128 -97 -160 -166 -22 -47 -27
-70 -26 -141 0 -72 4 -94 27 -141 32 -66 109 -142 172 -170 174 -77 398 18
456 193 l12 38 332 0 c328 0 332 0 365 22 18 13 43 36 54 51 20 27 21 42 24
358 2 221 -1 335 -8 349 -6 11 -51 40 -101 65 -178 88 -309 184 -450 327 -100
101 -133 120 -174 97z m-277 -1046 c48 -35 72 -81 72 -137 0 -194 -257 -241
-326 -60 -15 40 -16 53 -5 93 14 51 50 96 96 117 41 20 129 13 163 -13z"/>
<path d="M3648 1360 c-124 -109 -239 -187 -370 -253 -54 -26 -103 -57 -108
-68 -7 -12 -10 -132 -8 -348 3 -316 4 -331 24 -358 11 -15 36 -38 54 -51 33
-22 37 -22 364 -22 l332 0 13 -38 c31 -86 96 -153 189 -195 74 -33 188 -31
269 7 149 68 228 231 189 387 -42 166 -182 268 -352 257 -128 -8 -247 -92
-290 -203 l-17 -45 -303 0 -304 0 0 258 0 258 62 30 c124 58 371 240 443 326
35 42 34 99 -1 127 -49 38 -73 29 -186 -69z m679 -861 c45 -17 90 -67 103
-115 24 -83 -21 -168 -105 -200 -112 -42 -225 38 -225 161 0 118 115 197 227
154z"/>
<path d="M2162 952 c-30 -30 -38 -70 -21 -101 25 -44 41 -48 287 -77 l42 -5 0
-342 c0 -306 2 -346 18 -377 33 -66 111 -66 144 0 16 31 18 71 18 377 l0 342
43 5 c241 29 272 37 283 80 10 42 0 78 -29 100 -26 19 -31 19 -110 7 -125 -19
-349 -25 -452 -12 -192 25 -201 25 -223 3z"/>
</g>
</svg>
